<svg width="1123" height="280" viewBox="0 0 1123 280" fill="none" xmlns="http://www.w3.org/2000/svg">
<g clip-path="url(#clip0_7_97530)">
<path fill-rule="evenodd" clip-rule="evenodd" d="M116.829 34.8697C107.296 37.1467 92.6241 46.9411 83.9174 52.1776C75.2445 57.3952 40.7892 76.1064 36.0462 79.8288C30.9944 83.7924 27.6984 86.6428 26.3738 95.385C25.2525 102.781 25.9504 112.426 26.0403 120.111C26.138 128.49 26.2609 136.86 26.1919 145.239C26.0914 157.33 24.0116 183.141 28.7877 192.256C33.3443 200.953 48.5345 207.397 58.3361 213.06C69.2443 219.363 79.7371 225.113 90.2832 231.473C123.957 251.784 120.774 249.79 157.995 227.5C168.496 221.212 179.416 215.47 190.2 209.328C201.172 203.079 213.549 198.431 215.363 184.137C217.148 170.08 215.334 149.813 215.439 134.892C215.881 72.1719 223.046 91.4241 152.031 48.7376C143.014 43.3179 128.043 32.1907 116.829 34.8692V34.8697ZM112.332 52.0656C103.757 53.8694 90.9615 62.704 83.9124 66.9241C74.8824 72.3315 65.6024 77.3177 56.2108 82.6629C46.2436 88.3346 35.8429 92.0586 33.8788 103.787C32.0624 114.637 33.7598 134.641 33.6363 146.717C33.1579 193.462 29.5199 187.898 61.0768 205.902L102.339 229.826C119.402 239.616 127.242 230.595 147.502 218.524C156.517 213.154 165.781 207.73 175.226 202.803C185.67 197.355 195.503 192.735 196.986 181.152C197.835 174.517 197.073 148.038 197.077 138.834C197.082 128.717 198.909 106.041 195.228 98.3143C192.945 93.523 188.362 90.6625 183.845 87.9409C170.643 79.9855 156.827 73.0046 142.377 64.2529C133.652 58.9693 121.542 50.128 112.332 52.0656H112.332Z" fill="#1FB7BA"/>
<path fill-rule="evenodd" clip-rule="evenodd" d="M588.989 151.738C594.883 151.722 601.046 151.259 606.496 152.947C615.446 155.717 622.424 163.639 624.257 172.717C625.611 179.43 623.976 183.667 629.924 186.247C635.616 188.716 640.52 185.397 642.122 181.405C644.922 174.422 639.858 159.41 634.899 152.715C631.407 148.002 629.194 146.526 625.503 142.777C625.578 142.678 625.713 142.42 625.752 142.503C625.79 142.583 632.92 135.559 634.664 133.099C639.653 126.058 644.83 112.003 642.289 104.464C639.653 96.6448 628.29 96.3855 625.363 104.125C624.444 106.555 624.796 109.813 624.326 112.424C623.346 117.872 620.779 121.829 618.073 124.928C610.941 133.099 603.174 133.821 589.063 133.754C587.939 126.925 590.153 108.52 588.117 103.784C584.526 95.4285 571.653 97.2731 570.874 106.839C570.23 114.754 570.797 157.565 570.828 169.046L514.351 169.081L514.369 151.741C519.631 151.713 549.168 152.564 552.724 150.926C555.384 149.701 557.877 146.666 557.888 142.774C557.918 131.991 545.571 133.76 540.58 133.76C531.892 133.76 523.201 133.743 514.511 133.763L514.383 116.416C522.943 116.394 531.269 116.413 539.591 116.413C547.473 116.413 556.892 117.979 560.124 111.53C561.756 108.275 560.884 104.055 559.057 101.697C557.002 99.0444 554.079 98.4166 549.482 98.4289C540.913 98.4513 532.344 98.4368 523.775 98.4368C517.473 98.4368 504.714 97.1975 500.167 100.022C494.71 103.41 496.317 113.742 496.317 121.591C496.317 131.612 496.814 165.095 496.204 172.257C476.633 171.829 482.105 173.492 467.583 165.311C471.015 162.928 472.184 164.303 478.064 158.798C499.072 139.128 486.225 98.4289 452.607 98.3841C439.43 98.3668 429.986 104.964 424.507 111.812C416.528 121.784 416.863 130.217 416.863 145.24C416.863 152.139 416.863 159.036 416.863 165.934C416.863 171.997 415.614 180.55 419.364 184.285C423.811 188.712 429.953 187.555 433.291 183.142C438.074 176.817 430.912 135.369 437.274 125.031C442.82 116.019 455.877 112.535 464.961 121.588C474.07 130.666 470.529 143.97 461.187 149.363C454.5 153.225 449.144 150.175 443.651 152.074C439.056 153.663 435.603 159.811 439.181 165.502C440.887 168.217 459.825 179.345 464.143 182.031C470.196 185.797 470.333 186.866 479.29 186.925C493.525 187.018 578.813 187.707 582.624 186.63C592.679 183.788 587.482 167.526 588.989 151.738Z" fill="#F08100"/>
<path fill-rule="evenodd" clip-rule="evenodd" d="M668.65 161.342C673.5 161.005 710.923 160.824 713.324 161.624C713.344 173.569 713.358 185.521 713.355 197.466C713.354 203.038 712.586 209.174 715.258 213.514C717.961 217.903 722.581 218.011 729.387 217.97C777.654 217.687 826.469 218.168 874.701 217.826C898.787 217.655 923.316 218.347 947.329 217.726L947.308 202.046C903.234 201.246 858.467 202.025 814.4 202.025C792.159 202.025 769.916 202.023 747.674 202.025C729.366 202.028 731.354 202.83 731.359 185.148C731.363 173.981 731.359 162.812 731.359 151.644C731.359 140.629 732.198 131.478 727.858 122.137C713.893 92.0794 672.12 90.6357 655.853 118.739C648.249 131.874 650.65 147.618 650.65 163.962C650.65 172.02 647.773 188.122 660.572 186.981C671.346 186.022 668.649 171.687 668.65 161.342L668.65 161.342ZM668.649 143.211L713.324 143.275C713.324 134.385 712.776 129.699 707.93 124.266C697.491 112.563 681.09 115.13 674.082 124.105C669.678 129.743 668.65 134.046 668.65 143.21L668.649 143.211Z" fill="#F08100"/>
<path fill-rule="evenodd" clip-rule="evenodd" d="M357.81 98.7702C334.846 101.5 315.788 121.829 318.934 148.237C321.64 170.95 342.354 189.77 368.644 186.709C391.341 184.066 410.238 163.482 407.197 137.29C404.445 113.582 382.638 95.819 357.811 98.7707L357.81 98.7702ZM357.429 117.072C344.823 119.953 333.419 132.246 337.3 148.836C340.15 161.022 353.052 172.066 369.102 168.394C381.439 165.573 392.482 152.852 388.858 136.855C386.091 124.642 373.436 113.415 357.429 117.072Z" fill="#F08100"/>
<path fill-rule="evenodd" clip-rule="evenodd" d="M905.751 114.923C886.869 116.971 871.567 133.587 873.739 155.082C875.61 173.591 892.733 189.059 913.954 186.813C932.717 184.827 948.001 168.084 945.873 146.724C944.03 128.23 926.845 112.635 905.752 114.923L905.751 114.923ZM905.096 133.361C896.669 135.584 889.257 144.037 892.073 155.468C894.186 164.044 903.532 171.321 914.758 168.397C937.082 162.583 929.048 127.045 905.096 133.361Z" fill="#1FB7BA"/>
<path fill-rule="evenodd" clip-rule="evenodd" d="M250.955 151.734L291.18 151.747C291.513 159.65 291.227 168.003 291.217 175.79C291.203 185.999 298.359 188.666 303.915 186.242C310.397 183.414 309.26 175.176 309.26 167.412V118.634C309.26 110.639 310.752 102.262 304.01 99.2323C299.32 97.1239 291.24 98.7484 291.214 109.269C291.195 116.897 291.721 126.176 291.148 133.59L251.034 133.765C248.909 119.85 254.044 106.533 247.715 100.668C245.501 98.6146 241.786 97.6716 238.304 99.1304C231.329 102.054 232.806 110.143 232.806 118.142V166.92C232.806 175.172 231.27 183.319 237.964 186.253C241.186 187.666 245.149 186.792 247.5 185.164C253.318 181.134 249.87 164.542 250.954 151.735L250.955 151.734Z" fill="#F08100"/>
<path fill-rule="evenodd" clip-rule="evenodd" d="M1044.23 157.846C1051.62 157.757 1087.98 158.402 1092 157.393C1102.47 154.767 1095.97 134.616 1086.06 124.737C1068.14 106.872 1033.27 113.25 1025.72 141.548C1018.29 169.414 1045.15 194.642 1072.78 185.02C1096.92 176.613 1086.45 160.618 1075.52 164.097C1072.73 164.984 1070.95 167.125 1068.03 168.474C1065.01 169.872 1061 170.223 1057.27 169.667C1050.57 168.669 1045.37 164.025 1044.23 157.846H1044.23ZM1043.93 143.917L1076.62 143.916C1071.75 127.186 1048.46 128.044 1043.93 143.917Z" fill="#1FB7BA"/>
<path fill-rule="evenodd" clip-rule="evenodd" d="M768.775 114.885C759.415 115.713 751.624 119.075 746.254 123.62C741.22 127.881 737.452 138.276 742.154 146.787C752.728 165.929 787.181 152.838 787.635 163.501C787.964 171.229 771.816 171.63 765.237 169.631C754.95 166.505 749.843 157.747 743.199 163.445C740.367 165.873 739.447 170.537 741.647 174.399C745.437 181.059 764.076 187.847 776.084 186.885C785.404 186.138 793.152 182.599 798.607 178.262C803.72 174.196 807.481 163.873 803.121 155.48C800.002 149.474 792.101 145.553 783.338 144.11C776.562 142.993 758.124 145.379 757.529 138.793C756.793 130.664 772.768 130.138 779.523 132.208C788.263 134.887 792.982 144.178 800.555 138.348C803.309 136.227 805.487 131.884 803.056 127.484C801.469 124.611 797.552 122.148 794.379 120.374C787.774 116.682 777.642 114.102 768.776 114.886L768.775 114.885Z" fill="#1FB7BA"/>
<path fill-rule="evenodd" clip-rule="evenodd" d="M829.786 133.854C836.868 133.466 844.796 133.779 851.97 133.78C856.197 133.781 866.06 135.107 866.244 126.009C866.315 122.535 864.604 120.377 862.483 118.99C858.989 116.705 837.731 118.212 829.784 117.72C829.792 112.496 830.696 104.671 827.885 101.261C824.858 97.5893 818.252 97.5759 815.404 101.389C812.876 104.773 813.756 113.212 813.756 118.139C813.756 124.38 813.756 130.621 813.756 136.862C813.756 146.959 812.39 162.759 816.29 170.956C826.005 191.37 852.355 191.082 863.435 176.864C875.916 160.851 861.543 155.825 855.735 159.837C851.755 162.585 853.397 166.692 847.304 169.666C842.22 172.147 835.991 170.441 833.094 167.503C829.571 163.929 829.787 158.871 829.787 152.629C829.788 146.371 829.796 140.112 829.785 133.854H829.786Z" fill="#1FB7BA"/>
<path fill-rule="evenodd" clip-rule="evenodd" d="M981.781 115.136C970.237 116.957 962.23 123.893 957.992 131.688C952.656 141.503 954.165 155.499 954.165 167.903C954.165 174.693 952.931 180.859 957.209 184.699C961.786 188.806 968.059 187.033 970.804 182.884C974.379 177.487 970.777 152.806 972.497 144.227C974.705 133.217 988.855 128.604 997.047 137.099C1003.14 143.421 999.462 146.751 1002.36 151.51C1007.26 159.559 1023.55 158.257 1018.12 138.272C1013.99 123.062 998.531 112.492 981.781 115.136H981.781Z" fill="#1FB7BA"/>
<path fill-rule="evenodd" clip-rule="evenodd" d="M1058.47 220.78C1070.41 226.767 1059.01 202.824 1068.54 202.025C1079.6 201.098 1066.91 224.705 1078.95 221.17C1081.9 215.864 1076.87 202.881 1083.89 202.036C1092.07 201.05 1088.01 215.832 1089.62 220.769C1095.05 223.531 1095.61 219.897 1095.58 214.714C1095.54 208.407 1097.03 197.774 1087.05 195.701C1081.26 194.5 1079.7 196.917 1076.28 198.461C1071.7 193.229 1063.84 195.374 1060.24 199.622C1057.14 203.271 1056.88 215.764 1058.47 220.78Z" fill="#1FB7BA"/>
<path fill-rule="evenodd" clip-rule="evenodd" d="M1033.81 195.778C1016.86 199.768 1022.49 225.043 1039.63 221.424C1056.39 217.888 1051.04 191.72 1033.81 195.778ZM1035.27 202.164C1027.03 204.087 1029.27 216.798 1038.13 215.023C1045.93 213.462 1044.14 200.094 1035.27 202.164Z" fill="#1FB7BA"/>
<path fill-rule="evenodd" clip-rule="evenodd" d="M963.731 197.33C948.691 202.447 955.721 223.998 970.456 219.995C975.779 218.549 980.886 212.754 978.636 205.198C977.069 199.936 971.052 194.839 963.731 197.33Z" fill="#1FB7BA"/>
<path fill-rule="evenodd" clip-rule="evenodd" d="M1014.74 213.023C1009.58 210.661 1009.99 214.969 1005.17 215.161C995.942 215.528 996.154 201.072 1005.58 202.02C1010.67 202.532 1009.63 207.41 1015.08 203.55C1016.68 192.356 991.48 191.667 991.716 208.802C991.862 219.397 1003.07 224.609 1011.16 220.165C1013.97 218.625 1016.04 217.063 1014.74 213.024L1014.74 213.023Z" fill="#1FB7BA"/>
<path d="M136.906 128.024L161.603 114.228C162.213 113.888 162.707 114.167 162.707 114.852V142.602C162.707 143.287 162.213 144.118 161.603 144.459L136.906 158.255C136.297 158.595 135.803 158.316 135.803 157.631V129.881C135.803 129.196 136.297 128.365 136.906 128.024Z" fill="#F08100"/>
<path d="M159.426 110.207L136.893 97.5703C135.67 96.8848 133.689 96.8848 132.466 97.5703L109.933 110.207C108.711 110.892 108.711 112.004 109.933 112.689L132.466 125.326C133.689 126.011 135.67 126.011 136.893 125.326L159.426 112.689C160.648 112.004 160.648 110.892 159.426 110.207Z" fill="#F08100"/>
<path d="M132.528 128.024L107.832 114.228C107.223 113.888 106.728 114.167 106.728 114.852V142.602C106.728 143.287 107.223 144.118 107.832 144.459L132.528 158.255C133.138 158.596 133.632 158.316 133.632 157.631V129.881C133.632 129.196 133.138 128.365 132.528 128.024Z" fill="#F08100"/>
<path fill-rule="evenodd" clip-rule="evenodd" d="M168.325 134.909L151.551 134.913L127.942 134.903L111.065 134.915L99.552 134.924C98.6278 131.693 87.8801 104.906 86.5011 103.661C85.2607 102.871 41.8 102.393 39.6119 104.094C37.1368 106.018 37.8359 110.45 40.4912 111.635C42.7428 112.639 74.4339 111.806 75.9668 112.165C78.0438 112.651 83.1675 125.969 84.3241 128.535C91.9078 145.347 99.5722 164.277 106.51 181.312C111.038 192.431 107.913 190.473 121.934 190.473C130.336 190.473 138.75 190.43 147.152 190.482C151.047 190.506 155.151 190.079 154.007 185.274C153.117 181.535 147.878 182.47 144.176 182.472C135.828 182.476 127.479 182.455 119.132 182.475C118.102 180.825 112.759 168.909 112.574 167.103C129.533 167.084 146.493 167.093 163.452 167.098C168.097 167.099 172.148 168.184 173.723 164.354C174.849 161.616 175.825 157.481 176.765 154.554C178.091 150.427 183.619 137.981 179.332 135.189L168.325 134.91L168.325 134.909ZM114.419 143.62L102.167 143.576L108.669 158.987L165.924 159.069C167.861 157.851 170.977 146.411 171.587 143.576L131.302 143.596L114.419 143.62L114.419 143.62Z" fill="#1FB7BA"/>
<path fill-rule="evenodd" clip-rule="evenodd" d="M144.352 195.944C136.408 199.855 142.52 209.806 149.22 206.464C155.977 203.095 151.012 192.664 144.352 195.944Z" fill="#1FB7BA"/>
<path fill-rule="evenodd" clip-rule="evenodd" d="M114.173 195.925C106.393 199.617 112.053 209.611 118.701 206.603C125.334 203.602 121.462 192.464 114.173 195.925Z" fill="#1FB7BA"/>
</g>
<defs>
<clipPath id="clip0_7_97530">
<rect width="1123" height="280" fill="white"/>
</clipPath>
</defs>
</svg>
